<svg width="88" height="44" viewBox="0 0 88 44" fill="none" xmlns="http://www.w3.org/2000/svg">
<path fill-rule="evenodd" clip-rule="evenodd" d="M4.05247 0.373476C2.97299 0.942449 2.32703 2.2093 2.45555 3.50563C2.60046 4.96901 3.18373 5.68584 4.86963 6.47238C7.13107 7.52751 8.11749 8.8835 7.82887 10.5408C7.70807 11.2343 7.78595 11.4703 8.28482 11.9253C8.72728 12.3284 9.04772 12.4344 9.49572 12.3252C10.7951 12.0089 10.9 10.4128 9.66788 9.70678C8.18283 8.85566 7.79415 7.08557 8.67737 5.19688C9.93769 2.50174 8.53824 0.00547001 5.77864 0.0272276C5.18187 0.0319066 4.40523 0.187718 4.05247 0.373476ZM15.0132 0.475481C13.4455 1.40287 13.1812 2.90882 14.07 5.84937C14.5676 7.49522 14.272 8.6685 13.0961 9.71379C12.0588 10.6358 12.0383 11.6156 13.0447 12.1612C13.6157 12.4707 13.7459 12.4637 14.3321 12.091C14.9513 11.6972 14.9761 11.61 14.8254 10.3504C14.6067 8.52321 15.2025 7.67186 17.4729 6.5676C20.0596 5.30941 20.8288 3.73654 19.8431 1.72081C19.0508 0.100922 16.6796 -0.510629 15.0132 0.475481ZM1.22391 9.68993C0.58037 10.049 0.0132603 10.9112 0.000239918 11.5508C-0.0147094 12.2936 0.671272 13.2778 1.41126 13.5752C3.58061 14.4471 5.55536 11.9017 4.03053 10.199C3.37903 9.47142 2.0483 9.22998 1.22391 9.68993ZM18.7547 10.0472C17.6515 11.0036 17.6626 12.2012 18.7838 13.1733C19.4614 13.7605 19.7264 13.8496 20.4596 13.7364C22.3577 13.4435 23.063 11.3706 21.711 10.0589C20.7796 9.15512 19.7881 9.15114 18.7547 10.0472ZM9.8017 13.1222C8.04539 13.6337 6.502 15.6396 6.502 17.4108C6.502 19.0522 7.67335 20.9033 9.20252 21.6784C10.6025 22.3879 13.2282 21.9902 14.5447 20.8689C15.7947 19.8046 16.3394 16.942 15.5654 15.5046C14.4905 13.508 12.0048 12.4805 9.8017 13.1222ZM80.669 17.4279C80.1919 18.1256 79.7357 18.8625 79.6554 19.0656C79.4249 19.6484 79.1847 19.5059 78.723 18.512C78.2046 17.3968 77.298 16.5223 76.8377 16.6938C76.6059 16.7799 76.4524 17.4265 76.3446 18.7703C76.0733 22.1516 76.1432 24.0228 76.5527 24.3527C77.0605 24.7614 77.2681 24.4706 77.2825 23.3305C77.2893 22.7964 77.3163 21.4657 77.3428 20.3734L77.3908 18.3876L78.1778 19.5545C78.6108 20.1965 79.1208 20.7217 79.3113 20.7217C79.5018 20.7217 80.0301 20.1127 80.4851 19.3685C80.9403 18.6241 81.3475 18.0491 81.3902 18.0905C81.4327 18.1319 81.3663 18.8461 81.2424 19.6776C81.1187 20.5093 81.015 21.8966 81.0124 22.7606C81.0083 24.0949 81.0801 24.3693 81.4898 24.5819C81.755 24.7197 81.9754 24.8023 81.9793 24.7656C81.9834 24.7289 82.026 23.6461 82.074 22.3594C82.122 21.0727 82.2927 19.3084 82.4533 18.4388C82.6141 17.5692 82.6833 16.7008 82.6074 16.5087C82.3205 15.783 81.5419 16.1522 80.669 17.4279ZM26.9028 17.5049C26.6969 18.1162 26.4582 19.0579 26.3723 19.5976C26.2395 20.4328 26.1218 20.5912 25.5819 20.6607L24.9475 20.7423L25.5687 21.0434C26.1449 21.323 26.1818 21.4355 26.0813 22.6121C25.9776 23.8242 26.2484 24.5819 26.7854 24.5819C26.9018 24.5819 26.9971 23.8043 26.9971 22.8537V21.1258L27.7807 21.0121C28.2202 20.9482 28.6468 21.0137 28.7522 21.1609C28.8554 21.3054 28.8715 22.1341 28.7878 23.0028C28.6439 24.4982 28.6627 24.5819 29.1428 24.5819C29.6149 24.5819 29.6494 24.4558 29.6494 22.7267C29.6494 20.9891 29.6838 20.8647 30.1919 20.7678L30.7344 20.6642L30.2179 20.4967C29.7911 20.3584 29.6568 20.0393 29.4459 18.659C29.1768 16.901 28.8115 16.3936 27.8142 16.3936C27.3865 16.3936 27.2006 16.6203 26.9028 17.5049ZM31.3926 16.8042C30.5188 17.226 30.4836 17.692 31.328 17.6591C31.858 17.6382 31.8674 17.6773 31.6694 19.0628C31.309 21.5841 31.4013 23.0711 31.9639 23.8048C32.6855 24.7462 33.5147 24.7665 34.5682 23.8691C35.0456 23.4625 35.4362 23.0353 35.4362 22.9199C35.4362 22.4803 34.6219 22.7393 33.7985 23.4407C32.9896 24.1299 32.923 24.1473 32.6214 23.747C32.4456 23.5137 32.3017 22.8086 32.3017 22.1804C32.3017 21.0694 32.3282 21.027 33.2637 20.6459C34.4527 20.1612 34.4939 19.9029 33.3821 19.9029C32.6301 19.9029 32.5462 19.843 32.6448 19.3765C32.706 19.0869 32.8215 18.4554 32.9016 17.9728C33.0361 17.1603 33.107 17.0955 33.8598 17.0955C34.4686 17.0955 34.7939 17.2569 35.1553 17.7384C35.6841 18.4426 36.0554 18.3509 35.8027 17.5783C35.4408 16.4717 32.9773 16.0392 31.3926 16.8042ZM37.0293 17.037C36.7824 18.0907 36.561 23.0683 36.732 23.729C36.9519 24.5791 37.7488 24.705 39.257 24.1283C39.9504 23.863 40.7304 23.6461 40.9908 23.6461C41.6925 23.6461 41.5645 23.2115 40.8086 23.0276C40.2193 22.8839 39.4527 23.0699 37.7507 23.769C37.3133 23.9486 37.3 23.8616 37.4582 21.8716C37.5496 20.7245 37.7357 19.1688 37.872 18.4147C38.008 17.6605 38.0617 16.8971 37.9911 16.7186C37.7726 16.1662 37.1882 16.3599 37.0293 17.037ZM42.4597 16.9064C41.7147 17.3692 41.6821 17.4363 42.0689 17.7108C42.4564 17.9854 42.4672 18.1936 42.2005 20.248C41.9155 22.446 42.0047 23.7098 42.486 24.2895C42.9977 24.906 43.152 24.5153 43.152 22.6027V20.6235L44.1085 20.3455C45.195 20.0297 45.1752 19.6689 44.0714 19.6689C43.3393 19.6689 43.3331 19.6586 43.4905 18.7039C43.7784 16.9572 43.9708 16.7923 45.5248 16.9612C46.7791 17.0976 46.8515 17.0805 46.4213 16.7516C45.6982 16.1987 43.4582 16.2862 42.4597 16.9064ZM51.2757 16.5691C51.0329 16.9841 50.4031 19.1425 50.3371 19.7859C50.2833 20.309 50.1268 20.5067 49.7225 20.5626C49.424 20.6036 49.1799 20.7353 49.1799 20.8551C49.1799 21.0654 49.4695 21.1349 49.843 21.0142C49.9426 20.9821 50.0781 21.7371 50.1444 22.6918C50.3036 24.9825 50.7624 25.1315 50.9237 22.9447C50.9907 22.0347 51.0872 21.2533 51.1376 21.2086C51.1882 21.1639 51.582 21.0539 52.0131 20.9643L52.7967 20.8015V22.6918C52.7967 24.1917 52.8693 24.5819 53.1483 24.5819C53.4198 24.5819 53.5157 24.1704 53.5702 22.7714C53.6264 21.3258 53.719 20.9463 54.03 20.8888C54.3155 20.8359 54.459 21.0582 54.5687 21.7235C54.9815 24.2277 57.5742 25.4761 58.579 23.6543C58.795 23.2629 58.7682 23.1424 58.4386 23.0198C58.1626 22.9169 57.8817 23.0683 57.5644 23.4913C56.9753 24.2757 56.5808 24.2773 55.9489 23.4976C55.2065 22.5819 55.2626 20.5917 56.0754 19.009C56.42 18.3382 56.9247 17.6736 57.1971 17.532C57.6056 17.3201 57.6675 17.3371 57.5516 17.6303C57.3881 18.0437 57.9755 18.9332 58.2416 18.6751C58.3405 18.5792 58.4307 18.0528 58.442 17.5056C58.4623 16.5483 58.4331 16.5078 57.6762 16.4371C56.4072 16.3185 55.401 17.5816 54.5822 20.3224C54.5164 20.5425 54.3688 20.5612 54.0414 20.3912C53.7074 20.2176 53.5505 19.781 53.4342 18.7025C53.3443 17.867 53.108 17.066 52.8792 16.8208C52.4821 16.3948 51.4706 16.2362 51.2757 16.5691ZM61.035 16.803C60.7336 17.3694 60.3413 18.6807 60.1602 19.7274C60.0452 20.3919 59.894 20.6048 59.5372 20.6048C58.9271 20.6048 58.9274 20.9985 59.5374 21.1864C59.9321 21.308 60.0204 21.5831 60.0799 22.8797C60.1248 23.8579 60.2617 24.4633 60.4522 24.5244C60.6753 24.5957 60.7536 24.1669 60.7536 22.8734V21.1258L61.5373 21.0102C61.9684 20.9466 62.4021 20.9407 62.5017 20.9973C62.6013 21.0539 62.6826 21.8835 62.6826 22.8411C62.6826 24.2327 62.7551 24.5819 63.0443 24.5819C63.3353 24.5819 63.4059 24.2198 63.4059 22.7267C63.4059 20.9891 63.4404 20.8647 63.9484 20.7678L64.491 20.6642L63.9742 20.4967C63.5431 20.357 63.4298 20.0772 63.2897 18.8085C63.1108 17.1886 62.5963 16.3936 61.7265 16.3936C61.4661 16.3936 61.1548 16.5777 61.035 16.803ZM65.6151 16.8964C64.4907 17.4363 64.1464 17.9075 64.5739 18.3223C64.7697 18.5123 64.9814 18.461 65.3643 18.1309L65.8875 17.6803L65.7267 20.5137C65.5907 22.9132 65.6233 23.393 65.9386 23.6468C66.1433 23.8118 66.3536 23.9054 66.4057 23.8548C66.4578 23.8043 66.6063 22.3486 66.7358 20.6197C66.9241 18.1073 67.0538 17.4181 67.3822 17.1851C69.4013 15.7526 69.4679 21.4718 67.4545 23.425C66.7787 24.081 66.5742 24.1522 65.656 24.0518C64.4567 23.9206 64.477 24.2584 65.6816 24.4776C68.0412 24.9071 70.2202 21.9624 69.7898 18.9254C69.4556 16.5679 67.8866 15.8052 65.6151 16.8964ZM70.9361 16.8042C70.0622 17.226 70.027 17.692 70.8714 17.6591C71.4014 17.6382 71.4108 17.6773 71.2129 19.0628C70.8524 21.5841 70.9447 23.0711 71.5073 23.8048C72.2289 24.7462 73.0581 24.7665 74.1116 23.8691C74.589 23.4625 74.9796 23.0353 74.9796 22.9199C74.9796 22.4803 74.1654 22.7393 73.3419 23.4407C72.533 24.1299 72.4664 24.1473 72.1648 23.747C71.989 23.5137 71.8451 22.8086 71.8451 22.1804C71.8451 21.0694 71.8716 21.027 72.8071 20.6459C73.9961 20.1612 74.0373 19.9029 72.9255 19.9029C72.1735 19.9029 72.0896 19.843 72.1882 19.3765C72.2494 19.0869 72.3649 18.4554 72.445 17.9728C72.5795 17.1603 72.6504 17.0955 73.4032 17.0955C74.012 17.0955 74.3373 17.2569 74.6987 17.7384C75.2275 18.4426 75.5988 18.3509 75.3461 17.5783C74.9842 16.4717 72.5207 16.0392 70.9361 16.8042ZM82.9365 16.5148C82.9365 16.5815 83.4646 17.6607 84.11 18.9128L85.2833 21.1896L84.7237 22.6319C84.2308 23.9016 84.2072 24.1091 84.525 24.3651C85.0465 24.7852 85.2245 24.5075 86.0612 21.9654C86.4713 20.7194 87.0753 19.111 87.4035 18.3911C87.7316 17.6712 88 16.9272 88 16.7377C88 16.3213 87.0432 16.2708 87.017 16.686C87.0068 16.847 86.6984 17.6102 86.3315 18.3822L85.664 19.7859L84.9961 18.4992C84.2212 17.0063 83.7163 16.3936 83.2608 16.3936C83.0824 16.3936 82.9365 16.4481 82.9365 16.5148ZM28.6663 19.7274C28.6825 20.2903 28.5945 20.3708 27.9615 20.3708C27.0981 20.3708 27.0484 20.0524 27.6478 18.3654L28.0575 17.2124L28.3526 18.1483C28.5149 18.6629 28.6562 19.3737 28.6663 19.7274ZM52.7866 20.0784C52.7929 20.258 52.4739 20.3708 51.9588 20.3708C51.1441 20.3708 51.125 20.3497 51.2683 19.6105C51.349 19.1924 51.5762 18.4816 51.7727 18.0313L52.13 17.2124L52.4531 18.4992C52.6308 19.2069 52.7808 19.9176 52.7866 20.0784ZM62.3452 19.0286L62.5078 20.3708H61.7514C61.2674 20.3708 60.9947 20.2541 60.9947 20.0468C60.9947 19.3887 61.8035 17.3187 61.9898 17.4995C62.0959 17.6024 62.2558 18.2905 62.3452 19.0286ZM9.51597 22.5671C9.11813 22.7356 8.39357 23.3022 7.90603 23.8265C6.03302 25.8399 6.48005 29.0132 8.85145 30.5358C11.6827 32.3538 15.4 30.7019 16.0324 27.3447C16.2444 26.2198 15.6216 24.3857 14.7538 23.5795C13.4144 22.3346 11.1146 21.8901 9.51597 22.5671ZM1.55907 30.701C0.77881 31.1151 0.474037 31.6342 0.474037 32.5494C0.474037 33.8572 1.22874 34.6428 2.48086 34.6384C3.61533 34.6342 3.82823 34.5319 4.40619 33.7124C5.65905 31.9362 3.51165 29.6648 1.55907 30.701ZM19.1279 30.7045C17.9833 31.2421 17.722 33.1502 18.6676 34.0676C20.0184 35.3784 22.4158 34.469 22.4158 32.646C22.4158 31.0234 20.6583 29.9853 19.1279 30.7045ZM8.16426 32.2153C7.96269 32.4509 7.83659 33.2003 7.83321 34.1794C7.82694 36.0973 7.5077 36.5313 5.41696 37.4624C4.62127 37.8166 3.72359 38.3629 3.42195 38.6764C2.1298 40.0191 2.26868 42.0224 3.74095 43.2769C4.46672 43.8952 4.77969 44 5.8992 44C7.01871 44 7.33168 43.8952 8.05745 43.2769C9.29053 42.2264 9.52031 41.165 8.91366 39.3224C8.08879 36.8174 8.28868 35.5492 9.69103 34.3902C10.9135 33.3795 10.5062 31.8345 9.0171 31.8345C8.72728 31.8345 8.34342 32.006 8.16426 32.2153ZM12.53 32.3024C11.8232 32.9881 11.9375 33.6025 12.9083 34.3394C14.5151 35.5592 14.8454 36.9512 13.9714 38.8201C12.6922 41.5552 14.1008 43.997 16.9588 43.9991C17.9949 44 18.2379 43.8971 19.0324 43.1227C20.2621 41.9241 20.4652 40.8136 19.7182 39.3717C19.248 38.464 18.902 38.1678 17.5086 37.4802C15.3703 36.4256 14.673 35.4759 14.7516 33.7264C14.7957 32.738 14.7142 32.4231 14.3458 32.1618C13.7037 31.7063 13.0959 31.7533 12.53 32.3024Z" fill="black"/>
</svg>
